<?xml version="1.0" standalone="no"?><!DOCTYPE svg PUBLIC "-//W3C//DTD SVG 1.1//EN" "http://www.w3.org/Graphics/SVG/1.1/DTD/svg11.dtd"><svg t="1588150721013" class="icon" viewBox="0 0 1024 1024" version="1.1" xmlns="http://www.w3.org/2000/svg" p-id="817" xmlns:xlink="http://www.w3.org/1999/xlink" width="20" height="20"><defs><style type="text/css"></style></defs><path d="M947.9375 506.55078125L947.9375 506.55078125 947.9375 506.55078125zM508.06953125 946.41171875L508.06953125 946.41171875c-220.1765625 0-398.63671875-178.43203125-398.63671875-398.63671875 0-166.6546875 102.31171875-309.3609375 247.4296875-368.89453125l0 0.0984375c4.2890625-1.5328125 8.915625-2.35546875 13.7671875-2.35546875 22.7109375 0 41.25234375 18.45 41.25234375 41.2171875 0 17.92265625-11.475 33.25078125-27.54140625 38.90390625l0 0.028125c-113.08359375 48.1078125-192.43125 160.2984375-192.43125 290.97421875 0 174.628125 141.53203125 316.16015625 316.16015625 316.16015625 174.63515625 0 316.1671875-141.56015625 316.1671875-316.16015625 0-130.67578125-79.29140625-242.8453125-192.46640625-290.97421875l0 0c-16.03125-5.625-27.478125-20.953125-27.478125-38.896875 0-22.77421875 18.44296875-41.22421875 41.22421875-41.22421875 4.7953125 0 9.38671875 0.82265625 13.7390625 2.35546875l0-0.0984375c145.2375 59.540625 247.4296875 202.246875 247.4296875 368.89453125C906.7203125 767.9796875 728.225 946.41171875 508.06953125 946.41171875M508.06953125 520.296875c-22.7390625 0-41.2171875-18.45703125-41.2171875-41.259375L466.85234375 235.06015625 466.85234375 151.690625 466.85234375 107.9140625c-0.028125-22.71796875 18.478125-41.22421875 41.2171875-41.22421875 22.77421875 0 41.22421875 18.48515625 41.22421875 41.22421875l0 123.72890625 0 82.46953125 0 164.90390625C549.30078125 501.81171875 530.85078125 520.296875 508.06953125 520.296875" p-id="818"></path></svg>